<svg width="2295" height="867" viewBox="0 0 2295 867" fill="none" xmlns="http://www.w3.org/2000/svg">
<path d="M1.74753 501.048L129.662 412.909C208.342 358.694 315.886 376.993 372.208 454.179V454.179C438.91 545.593 573.223 551.428 647.602 466.145L682.645 425.964C751.347 347.19 873.758 344.698 947.189 419.084V419.084C1031.21 504.194 1175.26 484.638 1230.99 378.824V378.824C1302.96 242.186 1503.21 257.001 1554.29 402.74L1557.73 412.555C1596.97 524.509 1731.36 569.261 1829.88 503.179L1904.61 453.056C1982.23 400.991 2082.36 396.377 2164.44 441.081L2278.65 503.28" stroke="#FBBC05" stroke-width="4"/>
<path d="M1.74753 566.048L129.662 477.909C208.342 423.694 315.886 441.993 372.208 519.179V519.179C438.91 610.593 573.223 616.428 647.602 531.145L682.645 490.964C751.347 412.19 873.758 409.698 947.189 484.084V484.084C1031.21 569.194 1175.26 549.638 1230.99 443.824V443.824C1302.96 307.186 1503.21 322.001 1554.29 467.74L1557.73 477.555C1596.97 589.509 1731.36 634.261 1829.88 568.179L1904.61 518.056C1982.23 465.991 2082.36 461.377 2164.44 506.081L2278.65 568.28" stroke="#AD8DBC" stroke-width="4"/>
<path d="M1.74753 633.048L129.662 544.909C208.342 490.694 315.886 508.993 372.208 586.179V586.179C438.91 677.593 573.223 683.428 647.602 598.145L682.645 557.964C751.347 479.19 873.758 476.698 947.189 551.084V551.084C1031.21 636.194 1175.26 616.638 1230.99 510.824V510.824C1302.96 374.186 1503.21 389.001 1554.29 534.74L1557.73 544.555C1596.97 656.509 1731.36 701.261 1829.88 635.179L1904.61 585.056C1982.23 532.991 2082.36 528.377 2164.44 573.081L2278.65 635.28" stroke="#FBBC05" stroke-width="4"/>
<path d="M10.7475 710.048L138.662 621.909C217.342 567.694 324.886 585.993 381.208 663.179V663.179C447.91 754.593 582.223 760.428 656.602 675.145L691.645 634.964C760.347 556.19 882.758 553.698 956.189 628.084V628.084C1040.21 713.194 1184.26 693.638 1239.99 587.824V587.824C1311.96 451.186 1512.21 466.001 1563.29 611.74L1566.73 621.555C1605.97 733.509 1740.36 778.261 1838.88 712.179L1913.61 662.056C1991.23 609.991 2091.36 605.377 2173.44 650.081L2287.65 712.28" stroke="#AD8DBC" stroke-width="4"/>
</svg>
